<svg
  id="accessibility"
  xmlns="http://www.w3.org/2000/svg"
  viewBox="0 0 557 677"
>
  <g transform="translate(0.000000,677.000000) scale(0.100000,-0.100000)">
    <path d="M2612 6731 c-127 -32 -216 -83 -318 -185 -75 -76 -98 -106 -132 -176 -97 -203 -97 -417 0 -620 34 -70 57 -100 132 -176 76 -75 106 -98 176 -132 203 -97 417 -97 620 0 70 34 100 57 176 132 75 76 98 106 132 176 97 203 97 417 0 620 -34 70 -57 100 -132 176 -76 75 -106 98 -176 132 -47 22 -117 47 -157 56 -93 21 -229 19 -321 -3z"/>
    <path d="M190 5543 c-63 -23 -151 -113 -173 -177 -22 -63 -22 -149 0 -212 24 -72 112 -157 184 -178 124 -36 341 -96 434 -121 55 -15 125 -34 155 -42 30 -8 69 -19 85 -23 80 -21 410 -113 485 -135 137 -40 669 -184 683 -185 4 0 7 -404 7 -899 l0 -898 -165 -454 c-91 -250 -249 -681 -350 -959 -101 -278 -202 -554 -226 -615 -38 -99 -43 -119 -43 -195 0 -73 5 -97 33 -167 60 -152 169 -241 310 -251 90 -6 156 14 253 78 85 56 136 117 173 207 19 47 241 654 471 1288 252 694 273 749 280 730 4 -11 13 -36 21 -55 8 -19 37 -93 63 -165 27 -71 83 -220 125 -330 42 -110 98 -258 125 -330 26 -71 85 -227 130 -345 45 -118 101 -267 125 -330 193 -517 203 -541 242 -597 101 -150 316 -205 486 -126 131 62 216 186 225 329 7 105 5 110 -208 664 -37 96 -93 245 -125 330 -31 85 -78 207 -102 270 -25 63 -58 151 -73 195 -16 44 -47 127 -70 185 -23 58 -52 134 -65 170 -43 121 -116 315 -151 401 l-34 87 0 889 0 890 63 18 c97 28 149 42 332 90 94 25 195 52 225 60 30 8 107 29 170 45 156 41 221 58 315 85 124 34 186 51 370 100 396 105 414 111 466 144 83 52 128 139 129 247 0 165 -126 294 -287 294 -35 0 -104 -11 -155 -24 -206 -54 -296 -78 -363 -98 -38 -11 -119 -33 -180 -49 -102 -26 -162 -42 -365 -98 -42 -11 -118 -31 -170 -45 -52 -13 -129 -33 -170 -45 -42 -11 -120 -31 -173 -45 -53 -14 -127 -34 -165 -45 -234 -67 -162 -61 -770 -61 -532 0 -555 1 -630 21 -42 12 -115 32 -162 44 -47 13 -143 39 -215 59 -71 20 -164 46 -205 57 -41 11 -104 29 -140 40 -36 10 -141 39 -235 64 -93 25 -208 57 -255 70 -47 13 -177 50 -290 81 -113 31 -225 62 -249 70 -57 18 -144 17 -201 -3z"/>
  </g>
</svg>
