<svg
  id="accessibility"
  xmlns="http://www.w3.org/2000/svg"
  viewBox="0 0 389.000000 452.000000"
>

  <g transform="translate(0.000000,452.000000) scale(0.100000,-0.100000)">
    <path d="M1790 4504 c-97 -25 -180 -74 -255 -149 -112 -112 -165 -241 -165 -400 0 -159 53 -288 165 -400 112 -112 241 -165 400 -165 159 0 288 53 400 165 112 112 165 241 165 400 0 159 -53 288 -165 400 -113 113 -242 166 -405 164 -47 0 -110 -7 -140 -15z"/>
    <path d="M240 3256 c-60 -16 -109 -47 -155 -97 -59 -65 -79 -121 -79 -214 0 -96 21 -150 84 -219 75 -81 124 -96 400 -125 226 -24 310 -32 390 -41 47 -5 132 -14 190 -20 58 -6 139 -15 180 -20 41 -6 92 -10 113 -10 l38 0 -6 -72 c-3 -40 -15 -136 -25 -213 -38 -283 -50 -381 -50 -413 0 -31 -13 -96 -60 -297 -10 -44 -26 -114 -35 -155 -9 -41 -26 -115 -37 -165 -11 -49 -70 -241 -131 -425 -103 -308 -112 -341 -112 -410 0 -62 5 -86 28 -132 32 -66 99 -131 165 -161 65 -29 188 -30 253 0 58 26 123 84 153 137 33 57 249 719 276 841 12 55 30 136 40 180 10 44 26 114 35 155 9 41 25 111 36 155 10 45 19 94 19 109 0 46 9 26 24 -55 14 -74 43 -209 71 -329 9 -36 24 -105 35 -155 11 -49 27 -119 35 -155 9 -36 24 -105 35 -155 10 -49 33 -128 50 -175 17 -47 58 -163 90 -258 32 -95 68 -188 80 -206 29 -48 95 -105 149 -129 65 -30 188 -29 253 0 66 30 133 95 165 162 24 48 28 68 27 136 -1 83 -4 93 -154 515 -16 47 -30 94 -30 105 0 11 -12 65 -26 120 -14 55 -34 143 -44 195 -11 52 -27 124 -35 160 -50 212 -83 380 -169 880 l-32 185 130 12 c195 17 470 43 561 53 44 5 157 15 252 24 200 18 253 29 309 61 53 31 111 96 137 154 29 64 29 188 0 252 -42 94 -132 168 -229 189 -48 10 -207 1 -499 -30 -627 -66 -707 -70 -1190 -60 -419 10 -508 14 -752 40 -51 6 -136 15 -188 20 -52 6 -138 15 -190 20 -52 6 -138 15 -190 20 -320 34 -321 34 -385 16z"/>
  </g>
</svg>
